<?xml version="1.0" encoding="UTF-8"?>
<svg id="Layer_2" xmlns="http://www.w3.org/2000/svg" viewBox="0 0 326.49 436.12">
    <defs>
        <style>
            .cls-1 {
                fill: #e89024;
            }

            .cls-1,
            .cls-2 {
                stroke: #fff;
                stroke-miterlimit: 10;
                stroke-width: 2px;
            }

            .cls-2 {
                fill: #4283c4;
            }
        </style>
    </defs>
    <g id="Layer_1-2">
        <path class="cls-2"
            d="m325.49,32.43v173.06c0,17.36-14.07,31.43-31.43,31.43H123.6c-9.44,0-12.82,12.48-4.66,17.24l95.71,55.77c7.83,4.56,8.54,15.6,1.37,21.13l-131.22,101.3c-1.36,1.05-2.83,1.78-4.33,2.2-.41.12-1.08.31-1.48.45h-.02c-1.13.42-2.33-.42-2.33-1.62v-217c0-.97.78-1.75,1.75-1.75h210.78c9.59,0,17.36-7.77,17.36-17.36V39.85c0-9.58-7.77-17.35-17.35-17.35H39.58c-9.58,0-17.35,7.77-17.35,17.35v52.99c0,1.07-.95,1.91-2.01,1.74-10.9-1.77-19.22-11.23-19.22-22.64v-38.11c0-.72.05-1.42.16-2.11.18-1.17.17-2.36,0-3.53-.1-.65-.15-1.32-.15-2v-1.11C1,11.78,11.78,1,25.09,1h268.97c17.36,0,31.43,14.07,31.43,31.43Z" />
        <path class="cls-1"
            d="m306.54,39.2v157.43c0,9.58-7.77,17.35-17.35,17.35H90.3c-7.54,0-13.65,6.11-13.65,13.65v205.74c0,.95-.75,1.73-1.7,1.75-.1,0-.2,0-.3,0h-6.32c-13.02,0-23.58-10.56-23.58-23.58v-188.98c0-.06,0-.11,0-.17,0-.06,0-.13,0-.18v-12.76c0-7.77,6.29-14.06,14.05-14.06h210.71c11.28,0,20.43-9.15,20.43-20.44v-104.91c0-17.36-14.07-31.43-31.43-31.43H50.28c-6.07,0-11,4.92-11,11v30.91c0,7.56-6.13,13.7-13.7,13.7h-1.65c-.94,0-1.71-.77-1.71-1.71v-53.32c0-9.58,7.77-17.35,17.35-17.35h249.61c9.58,0,17.35,7.77,17.35,17.35Z" />
    </g>
</svg>