<svg xmlns="http://www.w3.org/2000/svg" viewBox="0 0 809 839"><defs><style>.cls-1{fill:#333;}.cls-2{fill:#59656f;}.cls-3{fill:#fff;}.cls-4{fill:#5b85aa;}.cls-5{fill:#f7931e;}.cls-6{fill:#fca311;}</style></defs><g id="Layer_2" data-name="Layer 2"><g id="Layer_1-2" data-name="Layer 1"><g id="D4"><line class="cls-1" x1="301.01" y1="791.28" x2="463.47" y2="74.95"/><path class="cls-2" d="M299.84,791c5.24-61.58,14.49-122.25,25-182.64s22.8-120.35,36.37-180,28.46-119.08,44.91-178.11c16.62-59,34.43-117.72,56.21-175.55l2.34.53L444.9,164.88l-20.1,89.59L384.58,433.64l-41,179-20.51,89.49-20.88,89.42Z"/></g><g id="D3"><line class="cls-3" x1="424.68" y1="478.05" x2="624" y2="693"/><path class="cls-4" d="M425.42,477.37l2.07,1.2,2,1.26,4,2.51c2.64,1.72,5.26,3.45,7.82,5.24,5.16,3.55,10.15,7.24,15.11,11,9.86,7.51,19.33,15.38,28.59,23.46a715.74,715.74,0,0,1,52.49,51.27,728.15,728.15,0,0,1,47.13,56.24c7.35,9.83,14.49,19.87,21.24,30.27,3.36,5.22,6.67,10.47,9.82,15.88,1.6,2.69,3.13,5.43,4.65,8.19l2.21,4.19,1.1,2.11,1,2.15-1.46,1.36L598,667.14l-25-26.75-50.07-53.51-49.59-54-24.79-27L424,478.73Z"/></g><path class="cls-5" d="M347,92.43,122.12,259a.37.37,0,0,0,0,.52L341,449c.24.21.48-.26.26-.5L164.68,265.13a.38.38,0,0,1,0-.49L347.2,93C347.43,92.73,347.21,92.25,347,92.43Z"/><path class="cls-6" d="M347.56,93.24q-27.22,19.79-54.12,40l-26.78,20.4L240,174.27c-35.42,27.6-70.75,55.3-106.48,82.47l-6.7,5.1L125.27,263a4.78,4.78,0,0,0,1.85-3.44,4.73,4.73,0,0,0-1-3.28c-1.32-1.39-.25-.29-.49-.55l.2.17.8.67,3.22,2.72,12.86,10.86,25.73,21.71,51.45,43.43,102.7,87.09,12.85,10.87,6.43,5.43,3.21,2.72.81.68.4.34.2.17c-.09-1.39-8-3.28-10.35-.26a7.82,7.82,0,0,0-3.07,5.41,8,8,0,0,0,1.55,5.73c1.28,1.5.25.31.49.6l-.19-.19-.73-.75-23.7-23.91L263,381.49q-47.4-47.83-93.5-96.91l-11.48-12.31-.36-.38a10.39,10.39,0,0,1-2.8-6.52,9.94,9.94,0,0,1,2.34-6.95c1.62-1.71.56-.58,1-1l.19-.18.39-.36,1.56-1.41,3.13-2.81,6.27-5.62q12.54-11.23,25.22-22.32c8.45-7.39,17-14.7,25.47-22.05l25.61-21.91,25.58-21.93c8.48-7.37,17-14.69,25.43-22.1s16.82-14.87,25.16-22.39L334.7,103l6.2-5.69,3.1-2.84,1.55-1.42.78-.71s.17-.17.15-.14a.68.68,0,0,0-.19.49.63.63,0,0,0,.19.42C346.6,93.41,347.42,93.47,347.56,93.24Zm-1.19-1.61a1.21,1.21,0,0,1,1.55.12,1.36,1.36,0,0,1,.38.91,1.29,1.29,0,0,1-.35,1l-.23.23-.76.73L345.44,96l-3,2.93-6.06,5.84-12,11.76q-12,11.81-23.88,23.75c-7.92,8-15.74,16-23.61,24l-23.45,24.2-23.44,24.22c-7.85,8-15.67,16.09-23.56,24.08s-15.83,15.92-23.81,23.81l-6,5.91-3,3-1.5,1.47-.38.37-.19.18c.29-.31-.9.94.6-.64a9.23,9.23,0,0,0,2.19-6.46,9.7,9.7,0,0,0-2.6-6.05l.37.38,11.88,11.93q47.33,47.88,93.34,97l46,49.21,23,24.57.72.77.18.19c.35.41-.55-.66.84,1a8.67,8.67,0,0,1,1.68,6.22,8.51,8.51,0,0,1-3.3,5.88c-2.45,3.14-10.61,1.2-10.82-.31l-.2-.18-.39-.35-.79-.69L331,451.25l-6.3-5.58-12.61-11.16L211.18,345.38,160.81,300.7l-25.18-22.34L123,267.19l-3.14-2.79-.79-.7-.2-.17c-.37-.39.56.61-.88-.91A5.48,5.48,0,0,1,119,255l1.81-1.32,6.83-4.92c36.41-26.26,73.2-52,109.93-77.82L265,151.41l27.32-19.68Q319.52,111.93,346.37,91.63Z"/><path class="cls-5" d="M465.75,95.18,688.88,261.73a.37.37,0,0,1,0,.52L471.64,451.69c-.24.21-.48-.26-.25-.49L646.65,267.88a.38.38,0,0,0,0-.49L465.52,95.69C465.29,95.47,465.51,95,465.75,95.18Z"/><path class="cls-6" d="M466.35,94.38q26.68,20.28,53.7,40.12l27.13,19.7,27.27,19.49c36.48,25.85,73,51.61,109.18,77.88l6.78,4.93.85.62.42.3.21.16c-.53-.62,2.29,2.06,2,2.95a5.45,5.45,0,0,1-.22,3.59,5.87,5.87,0,0,1-1.54,2.09l-.39.35-.78.69-3.12,2.8-12.5,11.17-25,22.34-50,44.68L500.24,437.37l-12.51,11.16-6.25,5.58-3.13,2.79-.78.7-.39.34c1.73-1.19-4.39,4.14-8.94,1.5-4-2-4.44-4.18-5.05-5.91a8.68,8.68,0,0,1,.71-6.07c1.84-2.88,1.48-1.9,1.56-2.16l.36-.39.71-.76,22.82-24.56,45.57-49.18q45.65-49.11,92.58-97l11.78-11.92.19-.19c-.32.39,1-1.14-.67.84a9.21,9.21,0,0,0-1.74,6.32c-.15,1.54,1.66,5,2.88,5.93l-.74-.73-1.49-1.47-3-3-6-5.9q-11.87-11.84-23.61-23.81c-7.83-8-15.58-16-23.37-24.07l-23.24-24.21-23.25-24.19c-7.81-8-15.57-16.06-23.42-24s-15.74-15.88-23.68-23.74l-11.95-11.76-6-5.84-3-2.93-1.5-1.46-.75-.73-.23-.23a1.29,1.29,0,0,1-.35-1,1.39,1.39,0,0,1,.37-.9A1.21,1.21,0,0,1,466.35,94.38Zm-1.2,1.6c.15.24,1,.18,1.09-.09a.63.63,0,0,0,.19-.42.66.66,0,0,0-.18-.48l.14.13.77.71,1.54,1.43,3.08,2.84,6.16,5.69,12.37,11.3q12.42,11.26,25,22.38c8.37,7.41,16.83,14.73,25.24,22.1l25.4,21.93,25.42,21.91c8.42,7.35,16.89,14.66,25.28,22.05s16.73,14.83,25,22.31l6.22,5.63,3.11,2.81,1.55,1.41.77.7c1.36,1,3.25,4.69,3.11,6.4a10,10,0,0,1-1.86,6.82c-1.76,2.11-.59.69-1,1.22l-.18.19L642,287.25q-45.71,49.06-92.73,96.85l-47.07,47.73-23.51,23.9-.74.75-.36.37c0-.13-.54,1,1.22-1.76a8,8,0,0,0,.65-5.56c-.56-1.57-.89-3.55-4.74-5.51-4.39-2.55-10.33,2.65-8.48,1.34l.4-.34.8-.68,3.19-2.72,6.37-5.44,12.76-10.87,101.94-87.1,51.07-43.43,25.54-21.72L681,262.2l3.2-2.72.79-.68.4-.33a5.65,5.65,0,0,0-1.18,1.69,4.65,4.65,0,0,0-.2,3.08c-.29.72,2.4,3.26,1.72,2.55l-.21-.16-.41-.31-.83-.64-6.66-5.1c-35.47-27.19-70.55-54.9-105.71-82.52l-26.45-20.6L518.9,136.05Q492.2,115.77,465.15,96Z"/><path class="cls-2" d="M404.5,24A365.78,365.78,0,0,1,552.31,54.94a379,379,0,0,1,120.94,84.59A395.54,395.54,0,0,1,755,265.27a411.32,411.32,0,0,1,0,308.46,395.54,395.54,0,0,1-81.74,125.74,379,379,0,0,1-120.94,84.59,368.54,368.54,0,0,1-295.62,0,379,379,0,0,1-120.94-84.59A395.54,395.54,0,0,1,54,573.73a411.32,411.32,0,0,1,0-308.46,395.54,395.54,0,0,1,81.74-125.74A379,379,0,0,1,256.69,54.94,365.78,365.78,0,0,1,404.5,24m0-24C181.1,0,0,187.82,0,419.5S181.1,839,404.5,839,809,651.18,809,419.5,627.9,0,404.5,0Z"/></g></g></svg>